<svg width="345" height="64" viewBox="0 0 345 64" fill="none" xmlns="http://www.w3.org/2000/svg">
<rect x="0.453003" width="64" height="64" rx="16" fill="#F02A74"/>
<path d="M43.0754 13.7009C44.3654 12.9875 45.9762 13.7422 46.2532 15.1902L50.8381 39.1677C51.0808 40.4377 50.1644 41.6361 48.8752 41.7351L33.052 42.946L27.4417 50.5134C26.8618 51.2951 25.6255 50.9753 25.4973 50.0105L24.6448 43.5906L19.5823 43.9783C18.5945 44.0539 17.6809 43.4499 17.3635 42.5115L17.012 41.4724C16.7785 41.4623 16.542 41.428 16.3069 41.365C14.5728 40.9 13.544 39.1167 14.009 37.3826C14.1898 36.7086 14.571 36.1429 15.0696 35.7283L13.7903 31.9421C13.4547 30.9496 13.8774 29.8586 14.7942 29.3513L43.0754 13.7009ZM42.8635 20.3386C42.7252 19.6382 41.9512 19.2693 41.3196 19.6023L19.136 31.3035C18.6674 31.5506 18.451 32.104 18.6282 32.6033L20.9866 39.2498C21.1445 39.6948 21.5765 39.9836 22.0481 39.9587L25.4221 39.781C25.9404 39.7537 26.4036 40.1031 26.5188 40.6091L27.3635 44.3259C27.4694 44.7918 28.0867 44.894 28.3372 44.4871L31.6272 39.1423C31.8103 38.8448 32.1279 38.6549 32.4768 38.6355L45.095 37.9353C45.7418 37.8993 46.2074 37.2994 46.0823 36.6638L42.8635 20.3386Z" fill="white"/>
<path d="M342.756 24.7771C343.515 24.7771 344.031 25.5461 343.743 26.2479L332.473 53.7754C332.309 54.1761 331.919 54.4379 331.486 54.4379H330.331C329.573 54.4379 329.057 53.6691 329.344 52.9674L332.552 45.1259C332.658 44.8675 332.658 44.5779 332.552 44.3193L325.183 26.2465C324.897 25.5449 325.413 24.7771 326.171 24.7771H327.57C328.011 24.7771 328.406 25.0478 328.565 25.4585L333.63 38.5337C333.983 39.4441 335.272 39.4416 335.621 38.5298L340.624 25.4624C340.782 25.0496 341.178 24.7771 341.62 24.7771H342.756Z" fill="#001F3F"/>
<path d="M300.856 34.7866C300.856 32.7258 301.273 30.9226 302.107 29.377C302.941 27.8069 304.082 26.5925 305.53 25.7338C307.002 24.8751 308.633 24.4458 310.424 24.4458C312.19 24.4458 313.724 24.8261 315.024 25.5866C315.384 25.7971 315.718 26.0226 316.027 26.2631C316.643 26.7421 317.931 26.312 317.931 25.5321C317.931 25.1151 318.269 24.777 318.686 24.777H320.25C320.839 24.777 321.317 25.2546 321.317 25.8437V43.8767C321.317 44.4658 320.839 44.9434 320.25 44.9434H318.71C318.28 44.9434 317.931 44.5946 317.931 44.1642C317.931 43.3624 316.624 42.9254 315.994 43.4215C315.672 43.6746 315.325 43.912 314.95 44.1338C313.65 44.8943 312.129 45.2746 310.387 45.2746C308.596 45.2746 306.977 44.833 305.53 43.9498C304.082 43.0666 302.941 41.8277 302.107 40.233C301.273 38.6383 300.856 36.8229 300.856 34.7866ZM317.931 34.8234C317.931 33.3023 317.624 31.9775 317.011 30.849C316.398 29.7205 315.564 28.8618 314.509 28.273C313.478 27.6597 312.338 27.353 311.086 27.353C309.835 27.353 308.694 27.6474 307.664 28.2362C306.634 28.825 305.812 29.6837 305.198 30.8122C304.585 31.9407 304.278 33.2655 304.278 34.7866C304.278 36.3322 304.585 37.6815 305.198 38.8346C305.812 39.9631 306.634 40.8341 307.664 41.4474C308.694 42.0362 309.835 42.3306 311.086 42.3306C312.338 42.3306 313.478 42.0362 314.509 41.4474C315.564 40.8341 316.398 39.9631 317.011 38.8346C317.624 37.6815 317.931 36.3445 317.931 34.8234Z" fill="#001F3F"/>
<path d="M294.838 30.3916C294.295 30.8533 294.366 32.4257 294.921 32.8731C295.706 33.4865 296.319 34.247 296.761 35.1547C297.227 36.0625 297.46 37.0315 297.46 38.0619C297.46 39.3622 297.129 40.5398 296.466 41.5947C295.804 42.6251 294.835 43.447 293.559 44.0603C292.308 44.6491 290.824 44.9435 289.106 44.9435H280.605C280.016 44.9435 279.538 44.466 279.538 43.8769V20.3606C279.538 19.7715 280.016 19.2939 280.605 19.2939H288.738C290.48 19.2939 291.965 19.5883 293.191 20.1771C294.418 20.7414 295.338 21.5142 295.951 22.4955C296.565 23.4769 296.871 24.5809 296.871 25.8075C296.871 27.3286 296.454 28.5921 295.62 29.5979C295.383 29.8857 295.122 30.1503 294.838 30.3916ZM282.887 29.3041C282.887 29.8932 283.365 30.3707 283.954 30.3707H288.518C290.088 30.3707 291.302 30.0027 292.161 29.2667C293.02 28.5307 293.449 27.5126 293.449 26.2123C293.449 24.9121 293.02 23.8939 292.161 23.1579C291.302 22.4219 290.063 22.0539 288.444 22.0539H283.954C283.365 22.0539 282.887 22.5315 282.887 23.1206V29.3041ZM288.812 42.1835C290.48 42.1835 291.781 41.791 292.713 41.0059C293.645 40.2209 294.111 39.1291 294.111 37.7307C294.111 36.3078 293.621 35.1915 292.639 34.3819C291.658 33.5478 290.345 33.1307 288.702 33.1307H283.954C283.365 33.1307 282.887 33.6083 282.887 34.1974V41.1169C282.887 41.706 283.365 42.1835 283.954 42.1835H288.812Z" fill="#001F3F"/>
<path d="M266.702 24.1882C269.106 24.1882 271.019 24.9733 272.442 26.5434C273.89 28.089 274.614 30.2234 274.614 32.9466V43.8768C274.614 44.4659 274.136 44.9434 273.547 44.9434H269.424C268.835 44.9434 268.358 44.4659 268.358 43.8768V33.793C268.358 32.4192 268.002 31.352 267.29 30.5914C266.579 29.8309 265.622 29.4506 264.42 29.4506C263.218 29.4506 262.261 29.8309 261.55 30.5914C260.838 31.352 260.482 32.4192 260.482 33.793V43.8768C260.482 44.4659 260.005 44.9434 259.416 44.9434H255.256C254.667 44.9434 254.19 44.4659 254.19 43.8768V25.4757C254.19 24.8866 254.667 24.409 255.256 24.409H259.828C260.189 24.409 260.482 24.7019 260.482 25.0633C260.482 25.7023 261.412 26.0421 261.929 25.6662C262.274 25.4154 262.65 25.1926 263.058 24.9978C264.138 24.4581 265.352 24.1882 266.702 24.1882Z" fill="#001F3F"/>
<path d="M237.015 24.1145C238.462 24.1145 239.726 24.4089 240.805 24.9977C241.175 25.1947 241.515 25.4124 241.827 25.6507C242.341 26.0433 243.344 25.6969 243.344 25.0502C243.344 24.696 243.631 24.4089 243.986 24.4089H248.57C249.16 24.4089 249.637 24.8865 249.637 25.4756V44.9065C249.637 46.7956 249.257 48.5006 248.496 50.0217C247.76 51.5673 246.62 52.794 245.074 53.7017C243.553 54.6094 241.652 55.0633 239.37 55.0633C236.328 55.0633 233.862 54.3396 231.973 52.8921C230.396 51.7041 229.383 50.157 228.935 48.2507C228.789 47.6323 229.29 47.0777 229.925 47.0777H234.121C234.611 47.0777 235.017 47.4249 235.264 47.8476C235.514 48.2759 235.877 48.6326 236.352 48.9177C237.088 49.3838 237.996 49.6169 239.076 49.6169C240.376 49.6169 241.406 49.2366 242.167 48.4761C242.952 47.7401 243.344 46.5502 243.344 44.9065C243.344 44.0558 242.016 43.5736 241.308 44.045C241.147 44.1526 240.979 44.2558 240.805 44.3545C239.726 44.9433 238.462 45.2377 237.015 45.2377C235.322 45.2377 233.789 44.8084 232.415 43.9497C231.041 43.0665 229.949 41.8276 229.14 40.2329C228.354 38.6137 227.962 36.7492 227.962 34.6393C227.962 32.5294 228.354 30.6772 229.14 29.0825C229.949 27.4878 231.041 26.2612 232.415 25.4025C233.789 24.5438 235.322 24.1145 237.015 24.1145ZM243.344 34.6761C243.344 33.106 242.903 31.867 242.02 30.9593C241.161 30.0516 240.106 29.5977 238.855 29.5977C237.604 29.5977 236.536 30.0516 235.653 30.9593C234.794 31.8425 234.365 33.0692 234.365 34.6393C234.365 36.2094 234.794 37.4606 235.653 38.3929C236.536 39.3006 237.604 39.7545 238.855 39.7545C240.106 39.7545 241.161 39.3006 242.02 38.3929C242.903 37.4852 243.344 36.2462 243.344 34.6761Z" fill="#001F3F"/>
<path d="M221.525 22.2746C220.421 22.2746 219.513 21.9556 218.802 21.3178C218.115 20.6554 217.771 19.8458 217.771 18.889C217.771 17.9076 218.115 17.098 218.802 16.4602C219.513 15.7978 220.421 15.4666 221.525 15.4666C222.604 15.4666 223.487 15.7978 224.174 16.4602C224.886 17.098 225.242 17.9076 225.242 18.889C225.242 19.8458 224.886 20.6554 224.174 21.3178C223.487 21.9556 222.604 22.2746 221.525 22.2746ZM223.586 24.409C224.175 24.409 224.653 24.8865 224.653 25.4756V43.8767C224.653 44.4658 224.175 44.9434 223.586 44.9434H219.427C218.837 44.9434 218.36 44.4658 218.36 43.8767V25.4756C218.36 24.8865 218.837 24.409 219.427 24.409H223.586Z" fill="#001F3F"/>
<path d="M192.132 34.6393C192.132 32.5294 192.525 30.6772 193.31 29.0825C194.119 27.4878 195.211 26.2612 196.585 25.4025C197.959 24.5438 199.492 24.1145 201.185 24.1145C202.632 24.1145 203.896 24.4089 204.975 24.9977C205.345 25.1948 205.685 25.4124 205.997 25.6507C206.511 26.0433 207.515 25.6969 207.515 25.0502C207.515 24.696 207.802 24.4089 208.156 24.4089H212.741C213.33 24.4089 213.807 24.8865 213.807 25.4756V43.8766C213.807 44.4657 213.33 44.9433 212.741 44.9433H208.173C207.81 44.9433 207.515 44.6484 207.515 44.2845C207.515 43.6266 206.518 43.2779 205.995 43.6781C205.672 43.9255 205.32 44.151 204.939 44.3545C203.859 44.9433 202.596 45.2377 201.148 45.2377C199.48 45.2377 197.959 44.8084 196.585 43.9497C195.211 43.0665 194.119 41.8276 193.31 40.2329C192.525 38.6137 192.132 36.7492 192.132 34.6393ZM207.515 34.6761C207.515 33.106 207.073 31.867 206.19 30.9593C205.331 30.0516 204.276 29.5977 203.025 29.5977C201.774 29.5977 200.707 30.0516 199.823 30.9593C198.965 31.8425 198.535 33.0692 198.535 34.6393C198.535 36.2094 198.965 37.4606 199.823 38.3929C200.707 39.3006 201.774 39.7545 203.025 39.7545C204.276 39.7545 205.331 39.3006 206.19 38.3929C207.073 37.4852 207.515 36.2462 207.515 34.6761Z" fill="#001F3F"/>
<path d="M174.7 25.0677C174.7 25.7256 175.692 26.0709 176.212 25.6672C176.527 25.4225 176.869 25.1993 177.239 24.9977C178.318 24.4089 179.582 24.1145 181.029 24.1145C182.722 24.1145 184.255 24.5438 185.629 25.4025C187.003 26.2612 188.082 27.4878 188.868 29.0825C189.677 30.6772 190.082 32.5294 190.082 34.6393C190.082 36.7492 189.677 38.6137 188.868 40.2329C188.082 41.8276 187.003 43.0665 185.629 43.9497C184.255 44.8084 182.722 45.2377 181.029 45.2377C179.606 45.2377 178.343 44.9433 177.239 44.3545C176.339 43.8637 174.7 44.4966 174.7 45.5216V53.6654C174.7 54.2545 174.222 54.7321 173.633 54.7321H169.473C168.884 54.7321 168.407 54.2545 168.407 53.6654V25.4756C168.407 24.8865 168.884 24.4089 169.473 24.4089H174.041C174.405 24.4089 174.7 24.7038 174.7 25.0677ZM183.679 34.6393C183.679 33.0692 183.237 31.8425 182.354 30.9593C181.495 30.0516 180.428 29.5977 179.152 29.5977C177.901 29.5977 176.834 30.0516 175.951 30.9593C175.092 31.867 174.663 33.106 174.663 34.6761C174.663 36.2462 175.092 37.4852 175.951 38.3929C176.834 39.3006 177.901 39.7545 179.152 39.7545C180.404 39.7545 181.471 39.3006 182.354 38.3929C183.237 37.4606 183.679 36.2094 183.679 34.6393Z" fill="#001F3F"/>
<path d="M155.652 24.1882C158.204 24.1882 160.228 24.961 161.724 26.5066C163.245 28.0522 164.006 30.1989 164.006 32.9466V43.8768C164.006 44.4659 163.528 44.9434 162.939 44.9434H158.816C158.227 44.9434 157.75 44.4659 157.75 43.8768V33.793C157.75 32.4682 157.394 31.4501 156.683 30.7386C155.996 30.0026 155.039 29.6346 153.812 29.6346C152.585 29.6346 151.616 30.0026 150.905 30.7386C150.218 31.4501 149.875 32.4682 149.875 33.793V43.8768C149.875 44.4659 149.397 44.9434 148.808 44.9434H144.685C144.096 44.9434 143.619 44.4659 143.619 43.8768V33.793C143.619 32.4682 143.263 31.4501 142.551 30.7386C141.864 30.0026 140.908 29.6346 139.681 29.6346C138.454 29.6346 137.485 30.0026 136.774 30.7386C136.087 31.4501 135.743 32.4682 135.743 33.793V43.8768C135.743 44.4659 135.266 44.9434 134.677 44.9434H130.517C129.928 44.9434 129.451 44.4659 129.451 43.8768V25.4757C129.451 24.8866 129.928 24.409 130.517 24.409H135.103C135.457 24.409 135.743 24.6957 135.743 25.0493C135.743 25.6662 136.616 25.9925 137.115 25.6298C137.461 25.3781 137.838 25.1552 138.246 24.961C139.276 24.4458 140.441 24.1882 141.742 24.1882C143.287 24.1882 144.661 24.5194 145.863 25.1818C146.554 25.555 147.16 26.0176 147.679 26.5698C148.234 27.1589 149.279 27.1888 149.852 26.6176C150.37 26.1005 150.967 25.6465 151.641 25.2554C152.868 24.544 154.205 24.1882 155.652 24.1882Z" fill="#001F3F"/>
<path d="M103.223 34.6393C103.223 32.5294 103.615 30.6772 104.4 29.0825C105.21 27.4878 106.302 26.2612 107.676 25.4025C109.049 24.5438 110.583 24.1145 112.276 24.1145C113.723 24.1145 114.987 24.4089 116.066 24.9977C116.435 25.1947 116.776 25.4124 117.088 25.6507C117.602 26.0433 118.605 25.6969 118.605 25.0502C118.605 24.696 118.892 24.4089 119.247 24.4089H123.831C124.42 24.4089 124.898 24.8865 124.898 25.4756V43.8766C124.898 44.4657 124.42 44.9433 123.831 44.9433H119.264C118.9 44.9433 118.605 44.6484 118.605 44.2845C118.605 43.6266 117.608 43.2779 117.086 43.6781C116.763 43.9255 116.411 44.151 116.029 44.3545C114.95 44.9433 113.686 45.2377 112.239 45.2377C110.571 45.2377 109.049 44.8084 107.676 43.9497C106.302 43.0665 105.21 41.8276 104.4 40.2329C103.615 38.6137 103.223 36.7492 103.223 34.6393ZM118.605 34.6761C118.605 33.106 118.164 31.867 117.28 30.9593C116.422 30.0516 115.367 29.5977 114.116 29.5977C112.864 29.5977 111.797 30.0516 110.914 30.9593C110.055 31.8425 109.626 33.0692 109.626 34.6393C109.626 36.2094 110.055 37.4606 110.914 38.3929C111.797 39.3006 112.864 39.7545 114.116 39.7545C115.367 39.7545 116.422 39.3006 117.28 38.3929C118.164 37.4852 118.605 36.2462 118.605 34.6761Z" fill="#001F3F"/>
<path d="M75.3755 31.9898C75.3755 29.4384 75.9275 27.169 77.0315 25.1818C78.1355 23.1701 79.6688 21.6122 81.6315 20.5082C83.6187 19.3797 85.8635 18.8154 88.3659 18.8154C91.4326 18.8154 94.0576 19.625 96.2411 21.2442C98.0691 22.5999 99.3899 24.3682 100.203 26.5493C100.448 27.2046 99.936 27.8682 99.2366 27.8682H94.3747C93.9636 27.8682 93.5962 27.6274 93.3818 27.2767C92.8969 26.4836 92.2676 25.8589 91.4939 25.4026C90.5616 24.8384 89.4944 24.5562 88.2923 24.5562C86.3542 24.5562 84.784 25.2309 83.5819 26.5802C82.3798 27.9296 81.7787 29.7328 81.7787 31.9898C81.7787 34.2469 82.3798 36.0501 83.5819 37.3994C84.784 38.7488 86.3542 39.4234 88.2923 39.4234C89.4944 39.4234 90.5616 39.1413 91.4939 38.577C92.2676 38.1208 92.8969 37.4961 93.3818 36.703C93.5962 36.3522 93.9636 36.1114 94.3747 36.1114H99.2366C99.936 36.1114 100.448 36.7751 100.203 37.4304C99.3899 39.6114 98.0691 41.3798 96.2411 42.7354C94.0576 44.3301 91.4326 45.1274 88.3659 45.1274C85.8635 45.1274 83.6187 44.5754 81.6315 43.4714C79.6688 42.3429 78.1355 40.785 77.0315 38.7978C75.9275 36.8106 75.3755 34.5413 75.3755 31.9898Z" fill="#001F3F"/>
</svg>
