<?xml version="1.0" encoding="utf-8"?>
<!-- Generator: Adobe Illustrator 27.5.0, SVG Export Plug-In . SVG Version: 6.00 Build 0)  -->
<svg version="1.1" xmlns="http://www.w3.org/2000/svg" xmlns:xlink="http://www.w3.org/1999/xlink" x="0px" y="0px"
	 viewBox="0 0 500 500" style="enable-background:new 0 0 500 500;" xml:space="preserve">
<g id="BACKGROUND">
	<rect id="Rectangle" style="fill:#FFFFFF;" width="500" height="500"/>
</g>
<g id="OBJECTS">
	<g>
		<path style="fill:#F5F8FF;" d="M82.66,333.372c36.19-48.188-2.018-96.383,4.509-145.903c4.871-36.959,43.588-57.413,87.256-44.704
			c111.363,32.409,120.6-53.502,190.331-35.212c71.646,18.792,15.513,97.157,44.862,136.608
			c29.349,39.451,51.552,109.855-28.727,138.178c-80.279,28.324-116.534-26.301-201.129,0
			C135.954,395.959,57.246,367.213,82.66,333.372z"/>
		<g>
			<g id="Leaf_00000031203337695486516900000004362510647850534053_">
				<path id="Leaf_Part_00000094579666101441623130000008138592431096937396_" style="fill:#E1ECFA;" d="M150.293,349.749
					c0,0-15.867-30.877,5.74-49.218c21.606-18.341-3.864-40.254-16.745-25.961c0,0,10.505-21.411-1.994-28.692
					c-12.499-7.282-16.724,5.69-16.724,5.69s-4.407-22.323-22.806-22.39c-18.398-0.067-16.355,21.303,1.952,34.189
					c0,0-14.636-4.435-15.99,5.851c-1.354,10.286,21.634,22.13,21.634,22.13s-18.899,3.719-15.597,13.767
					C96.211,324.733,151.294,323.913,150.293,349.749z"/>
				<path id="Leaf_Part_00000172412228763356713260000016957195567502839180_" style="fill:#E1ECFA;" d="M134.969,325.189
					c0,0-10.088-52.934-32.237-77.961"/>
				<path id="Leaf_Part_00000072281555299992563010000016152178412635409054_" style="fill:#E1ECFA;" d="M124.518,288.123
					c0,0-20.895-5.196-28.425-11.961"/>
				<path id="Leaf_Part_00000023280861767834147910000005936818658245082299_" style="fill:#E1ECFA;" d="M132.534,315.07
					c0,0-0.077-13.39,4.446-23.865c4.523-10.475,4.523-10.475,4.523-10.475"/>
				<path id="Leaf_Part_00000125595386159991720470000010735205248080798362_" style="fill:#E1ECFA;" d="M130.642,307.461
					c0,0-5.197-3.514-16.031-3.719s-10.899-3.449-10.899-3.449"/>
			</g>
			<g id="Leaf_00000021084020763037142820000004394616832768601245_">
				<path id="Leaf_Part_00000087403397095526727670000004747312247622341817_" style="fill:#E1ECFA;" d="M150.764,393.62
					c0,0-9.486-4.426,1.151-30.695c10.637-26.27-17.561-35.057-22.344-16.421c0,0-0.622-23.841-15.072-24.496
					c-14.45-0.655-12.178,12.797-12.178,12.797s-14.257-17.733-30.589-9.26c-16.331,8.473-4.61,26.458,17.586,29.385
					c0,0-15.024,2.859-11.453,12.6c3.571,9.741,29.43,9.573,29.43,9.573s-12.693,10.933-3.317,15.829
					C113.353,397.828,141.679,384.98,150.764,393.62z"/>
				<path id="Leaf_Part_00000044868368746388978490000009460716366298202022_" style="fill:#E1ECFA;" d="M149.219,393.354
					c0,0-33.486-42.219-64.716-54.12"/>
				<path id="Leaf_Part_00000075123336832709487920000007305697925930939042_" style="fill:#E1ECFA;" d="M122.771,365.362
					c0,0-20.922,5.087-30.73,2.586"/>
				<path id="Leaf_Part_00000127006722164393663140000001350790362384829080_" style="fill:#E1ECFA;" d="M142.369,385.518
					c0,0-6.278-11.827-7.129-23.205c-0.851-11.378-0.851-11.378-0.851-11.378"/>
				<path id="Leaf_Part_00000106145757687926278930000014558918361729486212_" style="fill:#E1ECFA;" d="M137.164,379.654
					c0,0-6.234-0.703-15.928,4.14c-9.693,4.843-11.255,1.999-11.255,1.999"/>
			</g>
			<g id="Leaf_00000116193186940299399280000005805043950075415689_">
				<path id="Leaf_Part_00000008836411724818427780000015006319289441908656_" style="fill:#E1ECFA;" d="M370.673,330.625
					c0,0,6.352-8.32-15.255-26.661c-21.606-18.341-0.7-39.203,12.181-24.91c0,0-10.505-21.41,1.994-28.692
					c12.499-7.282,16.724,5.69,16.724,5.69s4.407-22.323,22.806-22.39c18.398-0.067,16.355,21.303-1.952,34.189
					c0,0,14.636-4.435,15.99,5.851c1.353,10.286-21.634,22.13-21.634,22.13s16.316,3.8,10.28,12.486
					C405.768,317.003,374.715,318.757,370.673,330.625z"/>
				<path id="Leaf_Part_00000084492385679478726730000007716017771704242304_" style="fill:#E1ECFA;" d="M371.918,329.673
					c0,0,10.088-52.934,32.237-77.961"/>
				<path id="Leaf_Part_00000009566540410644376060000004511187687896613567_" style="fill:#E1ECFA;" d="M382.369,292.608
					c0,0,20.895-5.196,28.425-11.961"/>
				<path id="Leaf_Part_00000054971493277812251020000016564683379131660699_" style="fill:#E1ECFA;" d="M374.353,319.554
					c0,0,0.077-13.39-4.446-23.865c-4.523-10.475-4.523-10.475-4.523-10.475"/>
				<path id="Leaf_Part_00000062150247221700873650000013477544186584487095_" style="fill:#E1ECFA;" d="M376.246,311.945
					c0,0,5.197-3.514,16.031-3.719c10.834-0.205,10.899-3.449,10.899-3.449"/>
			</g>
			<g id="Leaf_00000150072488346509411140000006570744824657187755_">
				<path id="Leaf_Part_00000010289833624227540200000005762968562240990371_" style="fill:#E1ECFA;" d="M368.967,395.032
					c0,0,9.413-4.579-1.65-30.672c-11.063-26.093,16.989-35.338,22.074-16.782c0,0,0.234-23.848,14.672-24.738
					c14.438-0.89,12.385,12.598,12.385,12.598s13.967-17.963,30.434-9.757c16.467,8.206,5.04,26.38-17.105,29.667
					c0,0,15.068,2.614,11.656,12.411c-3.412,9.797-29.27,10.051-29.27,10.051s12.87,10.725,3.574,15.773
					C406.441,398.63,377.911,386.245,368.967,395.032z"/>
				<path id="Leaf_Part_00000171718424799051274700000005238040912164691624_" style="fill:#E1ECFA;" d="M370.508,394.741
					c0,0,32.794-42.758,63.827-55.166"/>
				<path id="Leaf_Part_00000063631618112113411160000004036543605487288960_" style="fill:#E1ECFA;" d="M396.497,366.323
					c0,0,21.002,4.746,30.769,2.085"/>
				<path id="Leaf_Part_00000059994941169131849360000016732028641089262482_" style="fill:#E1ECFA;" d="M377.23,386.795
					c0,0,6.085-11.928,6.75-23.318c0.666-11.391,0.666-11.391,0.666-11.391"/>
				<path id="Leaf_Part_00000103257576177204702810000015078147652892887721_" style="fill:#E1ECFA;" d="M382.339,380.847
					c0,0,6.222-0.804,15.993,3.881c9.771,4.685,11.287,1.815,11.287,1.815"/>
			</g>
		</g>
	</g>
	
		<line style="fill:none;stroke:#315782;stroke-linecap:round;stroke-miterlimit:10;" x1="53.501" y1="394.851" x2="455.88" y2="394.851"/>
	<g>
		
			<linearGradient id="Laptop_Part_00000144300804212883101290000007107440420356806079_" gradientUnits="userSpaceOnUse" x1="146.4195" y1="260.4545" x2="379.2846" y2="357.1819">
			<stop  offset="0" style="stop-color:#375F97"/>
			<stop  offset="1" style="stop-color:#2C4E86"/>
		</linearGradient>
		
			<path id="Laptop_Part_00000147199360238623049650000006119261723002734465_" style="fill:url(#Laptop_Part_00000144300804212883101290000007107440420356806079_);" d="
			M380.433,387.645H128.948V227.534c0-3.576,2.899-6.475,6.475-6.475h238.536c3.576,0,6.475,2.899,6.475,6.475V387.645z"/>
		<path id="Laptop_Part_00000020369264558146863430000018127012096512817322_" style="fill:#FFFFFF;" d="M361.145,380.071H148.236
			c-3.693,0-6.687-2.994-6.687-6.687V239.933c0-3.693,2.994-6.687,6.687-6.687h212.909c3.693,0,6.687,2.994,6.687,6.687v133.451
			C367.832,377.077,364.838,380.071,361.145,380.071z"/>
		<linearGradient id="SVGID_1_" gradientUnits="userSpaceOnUse" x1="157.8208" y1="347.0982" x2="365.1375" y2="433.2133">
			<stop  offset="0" style="stop-color:#375F97"/>
			<stop  offset="1" style="stop-color:#2C4E86"/>
		</linearGradient>
		<path style="fill:url(#SVGID_1_);" d="M388.8,394.851H120.582c-3.772,0-6.83-3.058-6.83-6.83v-1.371c0-3.772,3.058-6.83,6.83-6.83
			H388.8c3.772,0,6.83,3.058,6.83,6.83v1.371C395.63,391.793,392.572,394.851,388.8,394.851z"/>
	</g>
	<g>
		<g>
			
				<ellipse id="Ellipse_00000151527851724350229800000012262176683115576475_" transform="matrix(0.5744 -0.8185 0.8185 0.5744 -166.58 166.8284)" style="fill:#F0C66C;" cx="77.154" cy="243.62" rx="29.829" ry="29.829"/>
			
				<ellipse id="Ellipse_00000054952000820500233800000000298005439768644784_" transform="matrix(0.7071 -0.7071 0.7071 0.7071 -149.6671 125.911)" style="fill:none;stroke:#F0C66C;stroke-width:0.5;stroke-miterlimit:10;" cx="77.154" cy="243.62" rx="33.034" ry="33.034"/>
			<path style="fill:#FFFFFF;" d="M77.992,258.992c-0.439,0.439-1.151,0.439-1.59,0l-10.888-10.888
				c-11.214-11.214,1.723-21.4,11.07-10.622c0.306,0.353,0.864,0.354,1.131-0.029c7.894-11.321,22.401-0.585,11.165,10.651
				L77.992,258.992z"/>
		</g>
		<g>
			
				<ellipse id="Ellipse_00000088822780912241190730000004935838322784700586_" transform="matrix(0.1587 -0.9873 0.9873 0.1587 61.9722 403.0101)" style="fill:#F0C66C;" cx="267.469" cy="165.14" rx="29.829" ry="29.829"/>
			
				<ellipse id="Ellipse_00000116197297015899443330000004040980321508547760_" transform="matrix(0.936 -0.3521 0.3521 0.936 -41.0174 104.7485)" style="fill:none;stroke:#F0C66C;stroke-width:0.5;stroke-miterlimit:10;" cx="267.469" cy="165.14" rx="33.034" ry="33.034"/>
			<g>
				
					<ellipse transform="matrix(0.9368 -0.3499 0.3499 0.9368 -40.8743 104.0223)" style="fill:none;stroke:#FFFFFF;stroke-miterlimit:10;" cx="267.469" cy="165.14" rx="18.654" ry="18.654"/>
				<path style="fill:#FFFFFF;" d="M260.364,165.14v-7.069c0-1.492,1.615-2.424,2.907-1.678l6.122,3.534l6.122,3.534
					c1.292,0.746,1.292,2.611,0,3.357l-6.122,3.534l-6.122,3.534c-1.292,0.746-2.907-0.186-2.907-1.679V165.14z"/>
			</g>
		</g>
		<g>
			
				<ellipse id="Ellipse_00000024720948432075174650000015332388793932724406_" transform="matrix(0.1587 -0.9873 0.9873 0.1587 -32.1474 292.553)" style="fill:#F0C66C;" cx="155.594" cy="165.14" rx="29.829" ry="29.829"/>
			
				<ellipse id="Ellipse_00000004538048199280599130000010356336866531417248_" transform="matrix(0.9338 -0.3579 0.3579 0.9338 -48.7985 66.6286)" style="fill:none;stroke:#F0C66C;stroke-width:0.5;stroke-miterlimit:10;" cx="155.594" cy="165.14" rx="33.034" ry="33.034"/>
			<g>
				<g id="Magnet_Part_00000053543703476038151670000009077167981763532683_">
					<path id="Magnet_Part_00000001640728095688833580000004210589199210783140_" style="fill:#FFFFFF;" d="M158.12,151.413
						l-7.703,14.461c-0.716,1.343-0.956,2.547-0.72,3.61c0.235,1.064,0.989,1.934,2.262,2.613c1.273,0.678,2.431,0.818,3.475,0.421
						c1.043-0.397,1.917-1.255,2.62-2.575l7.703-14.461l6.93,3.691l-7.703,14.461c-1.218,2.286-2.74,3.98-4.566,5.079
						c-1.827,1.1-3.787,1.614-5.882,1.542c-2.095-0.072-4.156-0.648-6.183-1.728c-2.028-1.08-3.62-2.45-4.777-4.111
						c-1.158-1.661-1.764-3.534-1.817-5.62c-0.054-2.086,0.535-4.284,1.765-6.594l7.703-14.461L158.12,151.413z"/>
				</g>
				<g>
					<polygon style="fill:#E69724;" points="156.026,155.345 158.12,151.413 151.226,147.741 149.149,151.639 					"/>
					<polygon style="fill:#E69724;" points="172.687,159.173 165.758,155.482 163.644,159.45 170.555,163.175 					"/>
				</g>
			</g>
		</g>
	</g>
	<g>
		<path style="fill:#E1ECFA;" d="M325.351,355.534h-20.429c-1.005,0-1.82-0.815-1.82-1.82v-4.307c0-1.005,0.815-1.82,1.82-1.82
			h20.429c1.005,0,1.82,0.815,1.82,1.82v4.307C327.171,354.719,326.357,355.534,325.351,355.534z"/>
		<path style="fill:#E1ECFA;" d="M351.123,355.534h-20.429c-1.005,0-1.82-0.815-1.82-1.82v-4.307c0-1.005,0.815-1.82,1.82-1.82
			h20.429c1.005,0,1.82,0.815,1.82,1.82v4.307C352.943,354.719,352.128,355.534,351.123,355.534z"/>
		<path style="fill:#E1ECFA;" d="M334.964,344.728h-20.429c-1.005,0-1.82-0.815-1.82-1.82V338.6c0-1.005,0.815-1.82,1.82-1.82
			h20.429c1.005,0,1.82,0.815,1.82,1.82v4.307C336.784,343.913,335.969,344.728,334.964,344.728z"/>
		<path style="fill:#E1ECFA;" d="M279.669,302.167h20.429c1.005,0,1.82,0.815,1.82,1.82v4.307c0,1.005-0.815,1.82-1.82,1.82h-20.429
			c-1.005,0-1.82-0.815-1.82-1.82v-4.307C277.849,302.982,278.664,302.167,279.669,302.167z"/>
		<path style="fill:#E1ECFA;" d="M253.898,302.167h20.429c1.005,0,1.82,0.815,1.82,1.82v4.307c0,1.005-0.815,1.82-1.82,1.82h-20.429
			c-1.005,0-1.82-0.815-1.82-1.82v-4.307C252.078,302.982,252.893,302.167,253.898,302.167z"/>
		<path style="fill:#E1ECFA;" d="M270.056,312.973h20.429c1.005,0,1.82,0.815,1.82,1.82v4.307c0,1.005-0.815,1.82-1.82,1.82h-20.429
			c-1.005,0-1.82-0.815-1.82-1.82v-4.307C268.236,313.788,269.051,312.973,270.056,312.973z"/>
		<path style="fill:#E1ECFA;" d="M172.968,248.981h20.429c1.005,0,1.82,0.815,1.82,1.82v4.307c0,1.005-0.815,1.82-1.82,1.82h-20.429
			c-1.005,0-1.82-0.815-1.82-1.82v-4.307C171.148,249.796,171.963,248.981,172.968,248.981z"/>
		<path style="fill:#E1ECFA;" d="M159.485,259.787h20.429c1.005,0,1.82,0.815,1.82,1.82v4.307c0,1.005-0.815,1.82-1.82,1.82h-20.429
			c-1.005,0-1.82-0.815-1.82-1.82v-4.307C157.665,260.602,158.48,259.787,159.485,259.787z"/>
		<path style="fill:#E1ECFA;" d="M223.518,354.533h-20.429c-1.005,0-1.82,0.815-1.82,1.82v4.307c0,1.005,0.815,1.82,1.82,1.82
			h20.429c1.005,0,1.82-0.815,1.82-1.82v-4.307C225.338,355.348,224.523,354.533,223.518,354.533z"/>
		<path style="fill:#E1ECFA;" d="M233.131,365.339h-20.429c-1.005,0-1.82,0.815-1.82,1.82v4.307c0,1.005,0.815,1.82,1.82,1.82
			h20.429c1.005,0,1.82-0.815,1.82-1.82v-4.307C234.951,366.154,234.136,365.339,233.131,365.339z"/>
		<path style="fill:#E1ECFA;" d="M181.126,339.234h-20.429c-1.005,0-1.82,0.815-1.82,1.82v4.307c0,1.005,0.815,1.82,1.82,1.82
			h20.429c1.005,0,1.82-0.815,1.82-1.82v-4.307C182.946,340.049,182.131,339.234,181.126,339.234z"/>
	</g>
	<g>
		<path style="fill:#315782;" d="M181.24,361.495c-0.707,0.046-1.284,0.57-1.387,1.271c-0.377,2.565-1.291,9.053-2.178,17.305
			h35.932l-2.861-19.102c-0.116-0.771-0.803-1.326-1.581-1.275L181.24,361.495z"/>
		
			<line style="fill:none;stroke:#264154;stroke-width:0.5;stroke-linecap:round;stroke-miterlimit:10;" x1="198.339" y1="379.545" x2="199.83" y2="365.906"/>
		<path style="fill:none;stroke:#264154;stroke-width:0.5;stroke-linecap:round;stroke-miterlimit:10;" d="M203.989,368.129
			c0,0-1.461,10.27-5.509,10.127"/>
		<path style="fill:none;stroke:#264154;stroke-width:0.5;stroke-linecap:round;stroke-miterlimit:10;" d="M189.259,365.906
			c0,0-1.543,6.649-6.313,12.352"/>
		<path style="fill:#315782;" d="M206.142,286.578c0,0-0.071,4.22,2.56,8.146c1.649,2.461,1.241,5.721-1.126,8.752
			c-2.367,3.031,0.851,9.673,0.851,9.673l-11.732,1.584l-3.853-18.081L206.142,286.578z"/>
		<path style="fill:#E1B39D;" d="M218.326,327.541l4.395,5.799l21.29-7.354c0,0-0.562-3.43,0.645-5.592
			c1.207-2.163,2.036-2.336,2.365-1.787c0.329,0.549-0.733,3.287,0.071,4.175c0.804,0.888,1.446,0.478,3.762-2.207
			c2.316-2.685,3.356-3.93,4.348-3.607c0.992,0.322,0.077,2.479,0.077,2.479s1.019-0.122,1.542,0.548
			c0.522,0.67-0.072,1.445-0.072,1.445s0.64-0.008,1.143,0.828c0.503,0.836-0.302,1.674-0.302,1.674s1.407-0.054,0.754,1.749
			c-0.654,1.803-3.648,7.32-11.515,6.036c0,0-25.045,14.539-27.788,13.511c-2.743-1.028-7.905-8.835-7.905-8.835L218.326,327.541z"
			/>
		<path style="fill:#F0C66C;" d="M180.578,341.059c0.023-0.531-0.38-4.136-0.38-4.136l-10.455-0.518
			c-0.572-0.028-1.016-0.521-0.973-1.092c0.891-11.672,5.024-23.939,15.565-25.011c7.739-0.787,11.201-0.524,17.269-0.28
			c4.417,0.177,8.505,2.398,11.068,6c3.147,4.422,4.191,6.343,7.676,11.845c2.733,4.314,4.297,1.896-8.68,10.25l-0.014,9.306l0,0
			l-0.056,14.015c-0.003,0.832-0.683,1.502-1.515,1.494l-29.478-0.291c-0.529-0.032-0.935-0.482-0.913-1.012L180.578,341.059z"/>
		<path style="fill:#E1B39D;" d="M198.634,306.426l0.653,3.371c0,0,0.087,4.897-5.208,6.029c-5.296,1.132-6.825-4.594-6.825-4.594
			l0.61-5.475l-1.073-5.73l-3.717-8.384l20.376-11.56c0,0,3.753,12.618,3.244,17.374
			C206.184,302.213,203.63,307.365,198.634,306.426z"/>
		
			<line style="fill:none;stroke:#E69724;stroke-width:0.5;stroke-linecap:round;stroke-miterlimit:10;" x1="207.03" y1="322.197" x2="211.669" y2="338.117"/>
		
			<line style="fill:none;stroke:#E69724;stroke-width:0.5;stroke-linecap:round;stroke-miterlimit:10;" x1="180.399" y1="335.913" x2="183.936" y2="322.54"/>
		
			<line style="fill:none;stroke:#E69724;stroke-width:0.5;stroke-linecap:round;stroke-miterlimit:10;" x1="207.824" y1="360.189" x2="182.946" y2="359.69"/>
		<path style="fill:#E1B39D;" d="M180.198,336.923l-0.371,3.301l19.368,11.5c0,0,2.255-2.645,4.685-3.121
			c2.43-0.476,3.099,0.045,2.892,0.651c-0.207,0.606-2.982,1.564-3.141,2.752c-0.159,1.187,0.57,1.413,4.115,1.445
			c3.546,0.033,5.168,0.022,5.562,0.988c0.395,0.965-1.842,1.66-1.842,1.66s0.752,0.699,0.578,1.531
			c-0.174,0.831-1.149,0.878-1.149,0.878s0.42,0.483,0.107,1.408s-1.473,0.852-1.473,0.852s0.951,1.039-0.848,1.705
			c-1.798,0.666-7.944,1.944-12.047-4.889c0,0-25.151-9.132-26.138-11.89c-0.987-2.758-0.724-9.339-0.724-9.339L180.198,336.923z"/>
		<path style="fill:#315782;" d="M205.908,280.257c-0.624-2.579-2.99-5.754-7.823-5.607c-8.516,0.26-8.781,2.527-15.209,6.661
			c-2.009,1.292-3.32,2.552-4.104,3.775c-2,2.281-3.906,6.454-0.809,13.006c5.133,10.859-4.824,10.096-5.084,18.858
			c-0.217,7.294,3.143,3.464,6.734,9.285c4.072,6.602,11.989,0.345,10.303-4.988c-1.168-3.694,2.488-4.961,2.214-7.89
			c-0.179-1.918-1.969-3.728-2.663-5.069c-0.793-1.531-0.801-3.337-0.049-4.888c1.516-3.123,2.416-5.133-0.478-8.397
			c-1.935-2.183,1.4-4.735,3.422-2.822c1.029,0.974,1.268,2.107,2.497-3.72c0.725-3.439,3.987-4.582,6.545-4.947h0
			c0,0,4.131,3.751,4.669,7.285C206.605,294.308,209.235,284.226,205.908,280.257z"/>
	</g>
	<g>
		<g>
			<polygon id="Magnet_Part_00000021802185009701815120000015304625543575233722_" style="fill:#F0C66C;" points="435.181,283.289 
				413.783,287.84 418.708,274.798 400.957,273.455 428.391,268.705 420.052,282.69 			"/>
			<polygon id="Magnet_Part_00000091708149084731381410000016429484357787624577_" style="fill:#F0C66C;" points="426.533,236.215 
				416.709,245.504 415.109,237.037 405.312,242.043 418.256,230.706 418.358,240.769 			"/>
			<polygon id="Magnet_Part" style="fill:#F0C66C;" points="426.371,189.547 398.564,181.382 403.757,199.105 380.174,199.092 
				415.933,208.128 406.326,188.816 			"/>
		</g>
		<g>
			<path style="fill:#315782;" d="M240.538,294.309c0,0,6.523,30.592,8.566,43.702c0.967,6.204,2.51,10.767,3.869,13.855
				c1.305,2.966,4.647,4.453,7.735,3.469l17.064-5.438c3.508-1.118,5.337-4.973,3.976-8.394
				c-5.065-12.734-15.877-41.2-15.792-51.954L240.538,294.309z"/>
			<path style="fill:#F0C66C;" d="M218.887,258.278l8.481,33.853c0.636,2.539,3.13,4.151,5.706,3.687l45.704-8.221l-9.619-48.061
				l-45.285,10.57C220.222,250.96,217.976,254.639,218.887,258.278z"/>
			<path style="fill:#E69724;" d="M269.159,239.537l73.214-63.297c5.592-4.834,14.264-2.877,17.21,3.902
				c9.86,22.687,27.931,71.225,27.942,122.259c0.001,4.868-4.556,8.468-9.306,7.407l-99.44-22.211L269.159,239.537z"/>
			<path style="fill:#E69724;" d="M219.467,260.592L219.467,260.592c-5.479,1.213-8.874,6.711-7.505,12.153l2.538,10.089
				c1.367,5.435,6.938,8.682,12.341,7.193l0,0L219.467,260.592z"/>
			<path style="fill:#E69724;" d="M373.773,218.606c0,0,16.422,2.928,18.197,16.166c1.775,13.238-8.338,23.597-8.338,23.597
				S376.022,226.21,373.773,218.606z"/>
			<path style="fill:#F0C66C;" d="M387.525,302.401c-0.011-51.034-18.082-99.573-27.942-122.259
				c-2.946-6.779-11.618-8.737-17.21-3.902l-2.121,1.833c3.887,6.146,11.639,20.221,18.107,43.35
				c8.348,29.847,16.407,63.162,15.446,87.399l4.413,0.986C382.969,310.87,387.526,307.269,387.525,302.401z"/>
			<path style="fill:#E1B39D;" d="M244.656,320.394c0,0,1.713-3.859,2.702-3.447c1.23,0.512,0.505,3.452-0.759,6.01
				c-0.197,0.399-0.029,0.98-0.111,1.093c-0.072,0.1-0.404-0.669-0.482-0.571C244.011,325.986,244.656,320.394,244.656,320.394z"/>
		</g>
	</g>
</g>
</svg>
