<svg width="64" height="64" viewBox="0 0 64 64" fill="none" xmlns="http://www.w3.org/2000/svg">
<path d="M48 0C56.8366 0 64 7.16344 64 16V48C64 56.8366 56.8366 64 48 64H16C7.16344 64 0 56.8366 0 48V16C0 7.16344 7.16344 0 16 0H48ZM45.8018 15.1895C45.5247 13.7416 43.914 12.987 42.624 13.7002L14.3428 29.3506C13.4261 29.8578 13.0035 30.948 13.3389 31.9404L14.6182 35.7256C14.1189 36.1402 13.7376 36.7073 13.5566 37.3818C13.0918 39.1158 14.1205 40.8982 15.8545 41.3633C16.0899 41.4264 16.3268 41.4617 16.5605 41.4717L16.9121 42.5107C17.2295 43.4492 18.1431 44.0532 19.1309 43.9775L24.1934 43.5898L25.0459 50.0098C25.1741 50.9746 26.4105 51.2946 26.9902 50.5127L32.6006 42.9453L48.4238 41.7344C49.7128 41.6352 50.6293 40.4369 50.3867 39.167L45.8018 15.1895ZM40.8682 19.6006C41.4997 19.2678 42.2748 19.6375 42.4131 20.3379L45.6318 36.6621C45.7572 37.2976 45.2912 37.8974 44.6445 37.9336L32.0264 38.6348C31.6777 38.6541 31.3599 38.8434 31.1768 39.1406L27.8867 44.4863C27.6363 44.8931 27.0191 44.7909 26.9131 44.3252L26.0684 40.6084C25.9533 40.1024 25.4899 39.7522 24.9717 39.7793L21.5977 39.957C21.1261 39.9818 20.6941 39.6939 20.5361 39.249L18.1777 32.6025C18.0007 32.1033 18.217 31.5489 18.6855 31.3018L40.8682 19.6006Z" fill="#060002"/>
</svg>
