<svg width="346" height="289" viewBox="0 0 346 289" fill="none" xmlns="http://www.w3.org/2000/svg">
<path d="M299.404 88.4302C304.457 88.4302 308.553 84.3316 308.553 79.2756C308.553 74.2197 304.457 70.1211 299.404 70.1211C294.351 70.1211 290.255 74.2197 290.255 79.2756C290.255 84.3316 294.351 88.4302 299.404 88.4302Z" fill="#F5F6FA"/>
<path d="M172.279 265.5C245.414 265.5 304.702 206.178 304.702 133C304.702 59.8223 245.414 0.5 172.279 0.5C99.1434 0.5 39.8555 59.8223 39.8555 133C39.8555 206.178 99.1434 265.5 172.279 265.5Z" fill="#F5F6FA"/>
<g filter="url(#filter0_dd_464_351)">
<path d="M209.358 208.888L94.2697 255.383C92.3436 256.106 90.1766 255.142 89.4543 253.456L23.2426 88.9148C22.5203 86.9876 23.4834 84.8194 25.1688 84.0966L140.257 37.6012C142.183 36.8785 144.35 37.8421 145.072 39.5285L211.284 203.828C212.247 205.997 211.284 208.165 209.358 208.888Z" fill="white"/>
</g>
<path d="M158.556 111.559L62.248 150.345C61.2849 150.827 60.3218 150.345 59.8403 149.382C59.3587 148.418 59.8403 147.454 60.8034 146.972L156.87 108.186C157.834 107.704 158.797 108.186 159.278 109.15C159.76 110.113 159.278 111.077 158.556 111.559Z" fill="#F5F6FA"/>
<path d="M162.167 120.956L66.0995 159.743C65.1365 160.224 64.1734 159.743 63.6918 158.779C63.2103 157.815 63.6918 156.852 64.6549 156.37L160.722 117.584C161.685 117.102 162.648 117.584 163.13 118.547C163.611 119.511 163.13 120.474 162.167 120.956Z" fill="#F5F6FA"/>
<path d="M166.019 130.11L69.9521 169.137C68.989 169.619 68.0259 169.137 67.5444 168.174C67.0628 167.21 67.5444 166.246 68.5075 165.764L164.575 126.978C165.538 126.496 166.501 126.978 166.982 127.942C167.464 128.664 166.982 129.869 166.019 130.11Z" fill="#F5F6FA"/>
<path d="M109.92 163.838L73.8046 178.534C72.8415 179.015 71.8785 178.534 71.3969 177.57C70.9154 176.606 71.3969 175.643 72.36 175.161L108.475 160.465C109.439 159.984 110.402 160.465 110.883 161.429C111.124 162.393 110.883 163.356 109.92 163.838Z" fill="#F5F6FA"/>
<path d="M178.539 153.961L181.669 161.911C182.151 163.356 181.669 165.042 180.224 165.524L85.1204 204.07C83.6758 204.552 81.9904 204.07 81.5088 202.624L78.3788 194.433C77.8973 192.988 78.3788 191.302 79.8234 190.82L174.927 152.515C176.372 152.033 177.817 152.756 178.539 153.961Z" fill="#D5DAE5"/>
<path d="M186.003 172.269L189.133 180.219C189.615 181.665 189.133 183.351 187.689 183.833L92.5848 222.378C91.1402 222.86 89.4548 222.378 88.9732 220.933L85.6025 212.742C85.1209 211.297 85.6025 209.61 87.0471 209.128L182.151 170.824C183.596 170.342 185.281 171.065 186.003 172.269Z" fill="#D5DAE5"/>
<path d="M193.227 190.576L196.357 198.526C196.838 199.971 196.357 201.658 194.912 202.14L99.8079 240.685C98.3633 241.167 96.6779 240.685 96.1963 239.24L93.0663 231.29C92.5848 229.844 93.0663 228.158 94.5109 227.676L189.615 189.371C191.06 188.649 192.745 189.371 193.227 190.576Z" fill="#D5DAE5"/>
<path d="M89.695 186.965L94.9919 200.215L85.1204 204.069C83.6758 204.551 81.9904 204.069 81.5088 202.624L78.3788 194.433C77.8973 192.988 78.3788 191.301 79.8234 190.819L89.695 186.965Z" fill="#989FB0"/>
<path d="M87.2871 209.129L116.179 197.324L121.476 210.574L92.584 222.379C91.1394 222.861 89.454 222.379 88.9725 220.933L85.6017 212.742C85.1202 211.538 85.8425 209.851 87.2871 209.129Z" fill="#989FB0"/>
<path d="M94.5109 227.437L98.604 225.751L103.901 239.001L99.8079 240.687C98.3633 241.169 96.6779 240.687 96.1963 239.242L93.0663 231.292C92.5848 229.846 93.0663 228.16 94.5109 227.437Z" fill="#989FB0"/>
<path d="M95.9559 103.368C95.7151 90.1183 84.8805 79.2773 71.3974 79.2773H71.1566C57.6735 79.2773 46.8389 90.3592 46.8389 103.85C47.0796 117.341 58.155 128.182 71.6382 128.182C79.102 128.182 85.6028 124.809 90.1774 119.75C94.0297 115.414 96.1967 109.873 96.1967 103.609C95.9559 103.609 95.9559 103.609 95.9559 103.368ZM71.6382 120.473C62.4889 120.473 55.025 113.005 55.025 103.85C55.025 94.6955 62.4889 87.2273 71.6382 87.2273H71.8789C81.0282 87.2273 88.2513 94.4546 88.492 103.368C88.492 103.609 88.492 103.609 88.492 103.85C88.492 107.946 87.0474 111.8 84.3989 114.691C81.0282 118.305 76.6943 120.473 71.6382 120.473Z" fill="#F5F6FA"/>
<path d="M95.954 103.368H88.0086C88.0086 94.4546 80.5448 87.2273 71.6363 87.2273H71.3955V79.2773H71.6363C84.8786 79.2773 95.7132 90.1183 95.954 103.368Z" fill="#989FB0"/>
<g filter="url(#filter1_dd_464_351)">
<path d="M256.308 246.228L140.016 202.864C138.09 202.141 137.127 199.973 137.849 198.046L199.486 32.0595C200.209 30.1322 202.375 29.1686 204.302 29.8913L320.593 73.0141C322.52 73.7368 323.483 75.905 322.76 77.8322L261.123 244.06C260.401 245.987 258.234 246.95 256.308 246.228Z" fill="white"/>
</g>
<path opacity="0.4" d="M240.898 104.573L231.508 100.959L239.212 79.5186L248.602 82.8913L240.898 104.573Z" fill="#F5F6FA"/>
<path d="M253.658 109.151L244.027 105.537L255.825 72.7734L265.215 76.3871L253.658 109.151Z" fill="#989FB0"/>
<path d="M278.941 118.062L269.551 114.689L284.96 71.5664L294.591 74.9391L278.941 118.062Z" fill="#989FB0"/>
<path opacity="0.4" d="M290.979 122.399L281.589 119.026L285.682 107.222L295.313 110.835L290.979 122.399Z" fill="#F5F6FA"/>
<path d="M284.236 139.987L186.965 103.851C186.002 103.61 185.521 102.405 185.762 101.442C186.002 100.478 187.206 99.9963 188.169 100.237L285.44 136.374C286.403 136.614 286.885 137.819 286.644 138.783C286.163 139.746 285.199 140.228 284.236 139.987Z" fill="#F5F6FA"/>
<path d="M280.626 149.382L183.355 113.245C182.392 113.004 181.91 111.8 182.151 110.836C182.392 109.873 183.596 109.391 184.559 109.632L281.83 145.768C282.793 146.009 283.274 147.214 283.034 148.177C282.793 149.141 281.589 149.864 280.626 149.382Z" fill="#F5F6FA"/>
<path d="M277.254 158.776L179.983 122.64C179.02 122.399 178.538 121.194 178.779 120.231C179.02 119.267 180.224 118.785 181.187 119.026L278.458 155.163C279.421 155.404 279.902 156.608 279.662 157.572C279.18 158.776 278.217 159.258 277.254 158.776Z" fill="#F5F6FA"/>
<path d="M213.211 145.767L176.614 132.276C175.651 132.035 175.169 130.83 175.41 129.867C175.651 128.903 176.855 128.421 177.818 128.662L214.415 142.153C215.378 142.394 215.859 143.598 215.619 144.562C215.137 145.526 214.174 146.007 213.211 145.767Z" fill="#D5DAE5"/>
<path d="M270.514 184.794L267.624 192.985C267.143 194.431 265.458 195.154 264.013 194.672L243.307 186.963L167.705 158.776C166.26 158.294 165.538 156.608 166.02 155.163L168.909 146.972C169.39 145.526 171.076 144.804 172.52 145.285L247.641 173.231L268.588 180.94C270.273 181.904 270.995 183.349 270.514 184.794Z" fill="#F5F6FA"/>
<path d="M263.532 203.344L260.643 211.534C260.161 212.98 258.476 213.703 257.031 213.221L250.049 210.571L160.964 177.566C159.519 177.084 158.797 175.398 159.278 173.953L162.168 165.762C162.649 164.316 164.335 163.594 165.779 164.075L255.105 197.321L261.846 199.971C263.291 200.453 264.013 201.898 263.532 203.344Z" fill="#F5F6FA"/>
<path d="M256.789 221.894L253.899 230.085C253.418 231.531 251.732 232.253 250.288 231.772L214.654 218.522L154.221 196.117C152.776 195.635 152.054 193.949 152.535 192.503L155.425 184.313C155.906 182.867 157.591 182.144 159.036 182.626L220.914 205.513L255.103 218.281C256.548 218.763 257.27 220.449 256.789 221.894Z" fill="#F5F6FA"/>
<path d="M159.036 182.627L220.914 205.513L214.654 218.281L154.221 195.877C152.776 195.395 152.054 193.708 152.535 192.263L155.425 184.072C155.906 182.867 157.591 182.145 159.036 182.627Z" fill="#989FB0"/>
<path d="M166.02 155.404L168.909 147.213C169.39 145.767 171.076 145.045 172.52 145.527L247.641 173.472L242.825 186.722L167.705 158.777C166.26 158.295 165.538 156.849 166.02 155.404Z" fill="#989FB0"/>
<path d="M255.105 197.321L250.049 210.571L160.964 177.566C159.519 177.084 158.797 175.398 159.278 173.953L162.168 165.762C162.649 164.316 164.335 163.594 165.779 164.075L255.105 197.321Z" fill="#989FB0"/>
<path d="M190.578 152.272L185.763 165.522L167.705 158.776C166.26 158.294 165.538 156.608 166.02 155.163L168.909 146.972C169.39 145.526 171.076 144.804 172.52 145.285L190.578 152.272Z" fill="#D5DAE5"/>
<path d="M165.779 164.077L183.837 170.822L179.022 184.072L160.964 177.327C159.519 176.845 158.797 175.159 159.278 173.713L162.168 165.522C162.89 164.318 164.335 163.595 165.779 164.077Z" fill="#D5DAE5"/>
<path d="M159.036 182.627L177.094 189.372L172.278 202.622L154.221 195.877C152.776 195.395 152.054 193.708 152.535 192.263L155.425 184.072C155.906 182.867 157.591 182.145 159.036 182.627Z" fill="#D5DAE5"/>
<g filter="url(#filter2_dd_464_351)">
<path d="M235.6 205.996H111.604C109.678 205.996 107.992 204.31 107.992 202.383V25.0736C107.992 23.1463 109.678 21.46 111.604 21.46H235.6C237.526 21.46 239.212 23.1463 239.212 25.0736V202.142C239.452 204.31 237.767 205.996 235.6 205.996Z" fill="white"/>
</g>
<path d="M224.766 89.6365H121.235C120.272 89.6365 119.309 88.9142 119.309 87.7103C119.309 86.7473 120.031 85.7842 121.235 85.7842H224.766C225.729 85.7842 226.692 86.5065 226.692 87.7103C226.692 88.6734 225.729 89.6365 224.766 89.6365Z" fill="#F5F6FA"/>
<path d="M224.766 99.5115H121.235C120.272 99.5115 119.309 98.7892 119.309 97.5853C119.309 96.6223 120.031 95.6592 121.235 95.6592H224.766C225.729 95.6592 226.692 96.3815 226.692 97.5853C226.692 98.7892 225.729 99.5115 224.766 99.5115Z" fill="#F5F6FA"/>
<path d="M224.766 109.631H121.235C120.272 109.631 119.309 108.908 119.309 107.704C119.309 106.741 120.031 105.778 121.235 105.778H224.766C225.729 105.778 226.692 106.501 226.692 107.704C226.692 108.908 225.729 109.631 224.766 109.631Z" fill="#F5F6FA"/>
<path d="M224.525 147.453H189.614C188.651 147.453 187.688 146.731 187.688 145.527C187.688 144.564 188.41 143.601 189.614 143.601H224.525C225.488 143.601 226.451 144.323 226.451 145.527C226.211 146.49 225.488 147.453 224.525 147.453Z" fill="#F5F6FA"/>
<path d="M168.183 157.814C167.943 144.564 157.108 133.723 143.625 133.723H143.384C129.901 133.723 119.066 144.804 119.066 158.295C119.066 171.786 130.142 182.868 143.625 182.868C151.089 182.868 157.59 179.495 162.164 174.436C166.016 170.1 168.183 164.559 168.183 158.295C168.183 158.054 168.183 157.814 168.183 157.814ZM143.625 174.677C134.476 174.677 127.012 167.209 127.012 158.054C127.012 148.9 134.476 141.432 143.625 141.432H143.866C153.015 141.432 160.238 148.659 160.479 157.573C160.479 157.814 160.479 157.814 160.479 158.054C160.479 162.15 159.034 166.004 156.386 168.895C153.015 172.509 148.681 174.677 143.625 174.677Z" fill="#F5F6FA"/>
<path d="M168.185 157.814H160.24C159.999 148.9 152.776 141.673 143.627 141.673H143.386V133.723H143.627C157.11 133.723 167.944 144.323 168.185 157.814Z" fill="#989FB0"/>
<path d="M168.186 158.056C168.186 164.32 166.019 169.861 162.167 174.197L156.147 169.138C158.796 166.247 160.241 162.393 160.241 158.297C160.241 158.056 160.241 158.056 160.241 157.815H168.186V158.056Z" fill="#989FB0"/>
<path d="M181.185 148.178C182.647 148.178 183.833 146.991 183.833 145.528C183.833 144.064 182.647 142.878 181.185 142.878C179.722 142.878 178.536 144.064 178.536 145.528C178.536 146.991 179.722 148.178 181.185 148.178Z" fill="#F5F6FA"/>
<path d="M224.525 158.535H189.614C188.651 158.535 187.688 157.813 187.688 156.609C187.688 155.646 188.41 154.683 189.614 154.683H224.525C225.488 154.683 226.451 155.405 226.451 156.609C226.211 157.572 225.488 158.535 224.525 158.535Z" fill="#F5F6FA"/>
<path d="M181.185 159.26C182.647 159.26 183.833 158.074 183.833 156.61C183.833 155.146 182.647 153.96 181.185 153.96C179.722 153.96 178.536 155.146 178.536 156.61C178.536 158.074 179.722 159.26 181.185 159.26Z" fill="#989FB0"/>
<path d="M224.525 169.615H189.614C188.651 169.615 187.688 168.893 187.688 167.689C187.688 166.726 188.41 165.763 189.614 165.763H224.525C225.488 165.763 226.451 166.485 226.451 167.689C226.211 168.652 225.488 169.615 224.525 169.615Z" fill="#F5F6FA"/>
<path d="M181.185 170.342C182.647 170.342 183.833 169.156 183.833 167.692C183.833 166.228 182.647 165.042 181.185 165.042C179.722 165.042 178.536 166.228 178.536 167.692C178.536 169.156 179.722 170.342 181.185 170.342Z" fill="#989FB0"/>
<path d="M120.031 76.3854H226.451V33.2627L209.598 41.6945L200.689 47.9581L184.798 47.7172L170.834 54.9445L158.795 56.6309L154.461 61.4491L141.941 69.3991L129.662 71.5672L120.031 76.3854Z" fill="#989FB0"/>
<path d="M120.031 76.3857H226.451V43.6221L209.598 49.8857L200.689 54.7039L184.798 54.463L170.834 60.0039L158.795 61.4493L154.461 64.8221L141.941 71.0857L129.662 72.7721L120.031 76.3857Z" fill="#F5F6FA"/>
<path d="M120.031 76.3859H226.451V57.8359L209.598 61.4496L200.689 64.0996H184.798L170.834 66.9905L158.795 67.9541L154.461 69.8814L141.941 73.2541L129.662 74.2178L120.031 76.3859Z" fill="#D5DAE5"/>
<defs>
<filter id="filter0_dd_464_351" x="0.499996" y="24.8584" width="233.662" height="263.268" filterUnits="userSpaceOnUse" color-interpolation-filters="sRGB">
<feFlood flood-opacity="0" result="BackgroundImageFix"/>
<feColorMatrix in="SourceAlpha" type="matrix" values="0 0 0 0 0 0 0 0 0 0 0 0 0 0 0 0 0 0 127 0" result="hardAlpha"/>
<feOffset dy="10"/>
<feGaussianBlur stdDeviation="11.25"/>
<feColorMatrix type="matrix" values="0 0 0 0 0.397708 0 0 0 0 0.47749 0 0 0 0 0.575 0 0 0 0.15 0"/>
<feBlend mode="normal" in2="BackgroundImageFix" result="effect1_dropShadow_464_351"/>
<feColorMatrix in="SourceAlpha" type="matrix" values="0 0 0 0 0 0 0 0 0 0 0 0 0 0 0 0 0 0 127 0" result="hardAlpha"/>
<feOffset dy="2.5"/>
<feGaussianBlur stdDeviation="1.25"/>
<feComposite in2="hardAlpha" operator="out"/>
<feColorMatrix type="matrix" values="0 0 0 0 0 0 0 0 0 0 0 0 0 0 0 0 0 0 0.03 0"/>
<feBlend mode="normal" in2="effect1_dropShadow_464_351" result="effect2_dropShadow_464_351"/>
<feBlend mode="normal" in="SourceGraphic" in2="effect2_dropShadow_464_351" result="shape"/>
</filter>
<filter id="filter1_dd_464_351" x="115.109" y="17.1514" width="230.391" height="261.816" filterUnits="userSpaceOnUse" color-interpolation-filters="sRGB">
<feFlood flood-opacity="0" result="BackgroundImageFix"/>
<feColorMatrix in="SourceAlpha" type="matrix" values="0 0 0 0 0 0 0 0 0 0 0 0 0 0 0 0 0 0 127 0" result="hardAlpha"/>
<feOffset dy="10"/>
<feGaussianBlur stdDeviation="11.25"/>
<feColorMatrix type="matrix" values="0 0 0 0 0.397708 0 0 0 0 0.47749 0 0 0 0 0.575 0 0 0 0.15 0"/>
<feBlend mode="normal" in2="BackgroundImageFix" result="effect1_dropShadow_464_351"/>
<feColorMatrix in="SourceAlpha" type="matrix" values="0 0 0 0 0 0 0 0 0 0 0 0 0 0 0 0 0 0 127 0" result="hardAlpha"/>
<feOffset dy="2.5"/>
<feGaussianBlur stdDeviation="1.25"/>
<feComposite in2="hardAlpha" operator="out"/>
<feColorMatrix type="matrix" values="0 0 0 0 0 0 0 0 0 0 0 0 0 0 0 0 0 0 0.03 0"/>
<feBlend mode="normal" in2="effect1_dropShadow_464_351" result="effect2_dropShadow_464_351"/>
<feBlend mode="normal" in="SourceGraphic" in2="effect2_dropShadow_464_351" result="shape"/>
</filter>
<filter id="filter2_dd_464_351" x="85.4922" y="8.95996" width="176.242" height="229.536" filterUnits="userSpaceOnUse" color-interpolation-filters="sRGB">
<feFlood flood-opacity="0" result="BackgroundImageFix"/>
<feColorMatrix in="SourceAlpha" type="matrix" values="0 0 0 0 0 0 0 0 0 0 0 0 0 0 0 0 0 0 127 0" result="hardAlpha"/>
<feOffset dy="10"/>
<feGaussianBlur stdDeviation="11.25"/>
<feColorMatrix type="matrix" values="0 0 0 0 0.397708 0 0 0 0 0.47749 0 0 0 0 0.575 0 0 0 0.15 0"/>
<feBlend mode="normal" in2="BackgroundImageFix" result="effect1_dropShadow_464_351"/>
<feColorMatrix in="SourceAlpha" type="matrix" values="0 0 0 0 0 0 0 0 0 0 0 0 0 0 0 0 0 0 127 0" result="hardAlpha"/>
<feOffset dy="2.5"/>
<feGaussianBlur stdDeviation="1.25"/>
<feComposite in2="hardAlpha" operator="out"/>
<feColorMatrix type="matrix" values="0 0 0 0 0 0 0 0 0 0 0 0 0 0 0 0 0 0 0.03 0"/>
<feBlend mode="normal" in2="effect1_dropShadow_464_351" result="effect2_dropShadow_464_351"/>
<feBlend mode="normal" in="SourceGraphic" in2="effect2_dropShadow_464_351" result="shape"/>
</filter>
</defs>
</svg>
