<svg width="330" height="288" viewBox="0 0 330 288" fill="none" xmlns="http://www.w3.org/2000/svg">
<path d="M174.497 265C247.528 265 306.736 205.792 306.736 132.5C306.736 59.2077 247.528 0 174.497 0C101.465 0 42.2578 59.2077 42.2578 132.5C42.2578 205.792 101.465 265 174.497 265Z" fill="#F1F3FA"/>
<g filter="url(#filter0_d_464_495)">
<path d="M297.084 79.5525H70.9472C65.9915 79.5525 62.0791 75.6401 62.0791 70.6844V19.8232C62.0791 14.8675 65.9915 10.9551 70.9472 10.9551H296.823C301.779 10.9551 305.691 14.8675 305.691 19.8232V70.6844C305.952 75.6401 301.779 79.5525 297.084 79.5525Z" fill="white"/>
</g>
<path d="M116.854 45.1226C116.854 50.8607 114.245 56.0773 110.333 59.7289C106.942 62.8588 102.247 64.6846 97.2915 64.6846C92.3358 64.6846 87.6409 62.8588 84.2502 59.7289C80.0769 56.0773 77.7295 50.8607 77.7295 45.1226C77.7295 34.4287 86.5976 25.5605 97.2915 25.5605C107.985 25.5605 116.854 34.4287 116.854 45.1226Z" fill="#D5DAE5"/>
<path d="M181.016 39.3853H130.937C129.633 39.3853 128.851 38.342 128.851 37.2987V30.778C128.851 29.4739 129.894 28.6914 130.937 28.6914H181.016C182.32 28.6914 183.103 29.7347 183.103 30.778V37.2987C183.103 38.6028 182.32 39.3853 181.016 39.3853Z" fill="#D5DAE5"/>
<path d="M240.484 61.5552H130.937C129.633 61.5552 128.851 60.5119 128.851 59.4686V52.9479C128.851 51.6438 129.894 50.8613 130.937 50.8613H240.484C241.789 50.8613 242.571 51.9046 242.571 52.9479V59.4686C242.571 60.7727 241.528 61.5552 240.484 61.5552Z" fill="#D5DAE5"/>
<g filter="url(#filter1_d_464_495)">
<path d="M297.084 250.654H70.9472C65.9915 250.654 62.0791 246.742 62.0791 241.786V190.925C62.0791 185.969 65.9915 182.057 70.9472 182.057H296.823C301.779 182.057 305.691 185.969 305.691 190.925V241.786C305.952 246.742 301.779 250.654 297.084 250.654Z" fill="white"/>
</g>
<path d="M116.854 216.224C116.854 221.962 114.245 227.179 110.333 230.83C106.942 233.96 102.247 235.786 97.2915 235.786C92.3358 235.786 87.6409 233.96 84.2502 230.83C80.0769 227.179 77.7295 221.962 77.7295 216.224C77.7295 205.53 86.5976 196.662 97.2915 196.662C107.985 196.662 116.854 205.53 116.854 216.224Z" fill="#D5DAE5"/>
<path d="M181.016 210.749H130.937C129.633 210.749 128.851 209.705 128.851 208.662V202.141C128.851 200.837 129.894 200.055 130.937 200.055H181.016C182.32 200.055 183.103 201.098 183.103 202.141V208.662C183.103 209.705 182.32 210.749 181.016 210.749Z" fill="#D5DAE5"/>
<path d="M240.484 232.919H130.937C129.633 232.919 128.851 231.876 128.851 230.833V224.312C128.851 223.008 129.894 222.226 130.937 222.226H240.484C241.789 222.226 242.571 223.269 242.571 224.312V230.833C242.571 231.876 241.528 232.919 240.484 232.919Z" fill="#D5DAE5"/>
<g filter="url(#filter2_d_464_495)">
<path d="M258.744 165.103H32.8681C27.9124 165.103 24 161.191 24 156.235V105.374C24 100.418 27.9124 96.5059 32.8681 96.5059H258.744C263.7 96.5059 267.612 100.418 267.612 105.374V156.235C267.873 161.191 263.7 165.103 258.744 165.103Z" fill="white"/>
</g>
<path d="M142.936 124.936H92.8571C91.553 124.936 90.7705 123.893 90.7705 122.849V116.329C90.7705 115.025 91.8138 114.242 92.8571 114.242H142.936C144.24 114.242 145.022 115.285 145.022 116.329V122.849C145.022 124.154 144.24 124.936 142.936 124.936Z" fill="#D5DAE5"/>
<path d="M202.404 147.366H92.8571C91.553 147.366 90.7705 146.322 90.7705 145.279V138.758C90.7705 137.454 91.8138 136.672 92.8571 136.672H202.144C203.448 136.672 204.23 137.715 204.23 138.758V145.279C204.491 146.322 203.448 147.366 202.404 147.366Z" fill="#D5DAE5"/>
<path d="M79.0343 130.673C79.0343 136.151 76.6868 141.106 73.0352 144.758C72.7744 145.019 72.7744 145.019 72.5136 145.28C69.1228 148.41 64.428 150.235 59.4723 150.235C54.5165 150.235 50.0825 148.41 46.6917 145.54C46.6917 145.54 46.6917 145.54 46.4309 145.54C42.2577 141.889 39.6494 136.672 39.6494 130.673C39.6494 119.979 48.5175 111.111 59.2114 111.111C70.1661 111.111 79.0343 119.979 79.0343 130.673Z" fill="#D5DAE5"/>
<defs>
<filter id="filter0_d_464_495" x="38.6047" y="0.522006" width="290.573" height="115.546" filterUnits="userSpaceOnUse" color-interpolation-filters="sRGB">
<feFlood flood-opacity="0" result="BackgroundImageFix"/>
<feColorMatrix in="SourceAlpha" type="matrix" values="0 0 0 0 0 0 0 0 0 0 0 0 0 0 0 0 0 0 127 0" result="hardAlpha"/>
<feOffset dy="13.0413"/>
<feGaussianBlur stdDeviation="11.7372"/>
<feColorMatrix type="matrix" values="0 0 0 0 0.397708 0 0 0 0 0.47749 0 0 0 0 0.575 0 0 0 0.17 0"/>
<feBlend mode="normal" in2="BackgroundImageFix" result="effect1_dropShadow_464_495"/>
<feBlend mode="normal" in="SourceGraphic" in2="effect1_dropShadow_464_495" result="shape"/>
</filter>
<filter id="filter1_d_464_495" x="38.6047" y="171.624" width="290.573" height="115.546" filterUnits="userSpaceOnUse" color-interpolation-filters="sRGB">
<feFlood flood-opacity="0" result="BackgroundImageFix"/>
<feColorMatrix in="SourceAlpha" type="matrix" values="0 0 0 0 0 0 0 0 0 0 0 0 0 0 0 0 0 0 127 0" result="hardAlpha"/>
<feOffset dy="13.0413"/>
<feGaussianBlur stdDeviation="11.7372"/>
<feColorMatrix type="matrix" values="0 0 0 0 0.397708 0 0 0 0 0.47749 0 0 0 0 0.575 0 0 0 0.17 0"/>
<feBlend mode="normal" in2="BackgroundImageFix" result="effect1_dropShadow_464_495"/>
<feBlend mode="normal" in="SourceGraphic" in2="effect1_dropShadow_464_495" result="shape"/>
</filter>
<filter id="filter2_d_464_495" x="0.525589" y="86.0728" width="290.573" height="115.546" filterUnits="userSpaceOnUse" color-interpolation-filters="sRGB">
<feFlood flood-opacity="0" result="BackgroundImageFix"/>
<feColorMatrix in="SourceAlpha" type="matrix" values="0 0 0 0 0 0 0 0 0 0 0 0 0 0 0 0 0 0 127 0" result="hardAlpha"/>
<feOffset dy="13.0413"/>
<feGaussianBlur stdDeviation="11.7372"/>
<feColorMatrix type="matrix" values="0 0 0 0 0.397708 0 0 0 0 0.47749 0 0 0 0 0.575 0 0 0 0.17 0"/>
<feBlend mode="normal" in2="BackgroundImageFix" result="effect1_dropShadow_464_495"/>
<feBlend mode="normal" in="SourceGraphic" in2="effect1_dropShadow_464_495" result="shape"/>
</filter>
</defs>
</svg>
